<?xml version="1.0" encoding="UTF-8" standalone="no"?>
<svg
   width="210mm"
   height="297mm"
   viewBox="0 0 210 297"
   version="1.1"
   style="stroke:black; fill:none; stroke-width:0.5pt; stroke-linejoin:round; text-anchor:middle"
   font-family="Helvetica, Arial, FreeSans, Sans, sans, sans-serif"
   id="svg147"
   sodipodi:docname="out.svg"
   inkscape:version="1.3.2 (091e20e, 2023-11-25, custom)"
   xmlns:inkscape="http://www.inkscape.org/namespaces/inkscape"
   xmlns:sodipodi="http://sodipodi.sourceforge.net/DTD/sodipodi-0.dtd"
   xmlns="http://www.w3.org/2000/svg"
   xmlns:svg="http://www.w3.org/2000/svg">
  <defs
     id="defs147" />
  <sodipodi:namedview
     id="namedview147"
     pagecolor="#ffffff"
     bordercolor="#000000"
     borderopacity="0.25"
     inkscape:showpageshadow="2"
     inkscape:pageopacity="0.0"
     inkscape:pagecheckerboard="0"
     inkscape:deskcolor="#d1d1d1"
     inkscape:document-units="mm"
     inkscape:zoom="0.4894542"
     inkscape:cx="-15.323191"
     inkscape:cy="601.69062"
     inkscape:window-width="1920"
     inkscape:window-height="991"
     inkscape:window-x="-9"
     inkscape:window-y="-9"
     inkscape:window-maximized="1"
     inkscape:current-layer="g147" />
  <g
     id="g147">
    <path
       id="rect1"
       style="fill:#ffffff;fill-opacity:1;stroke:none;stroke-width:33.0484;stroke-linecap:butt;stroke-linejoin:miter;stroke-miterlimit:10;stroke-dasharray:none;stroke-opacity:1;paint-order:stroke fill markers"
       d="M -14.142806 -10.3203 L -14.142806 307.32026 L 224.14291 307.32026 L 224.14291 -10.3203 L -14.142806 -10.3203 z M 0 0 L 210.0001 0 L 210.0001 296.99996 L 0 296.99996 L 0 0 z " />
    <path
       id="rect151"
       style="stroke:none;stroke-opacity:1;stroke-width:30;stroke-dasharray:none;paint-order:stroke fill markers;stroke-linecap:butt;stroke-miterlimit:10;stroke-linejoin:miter;fill:#000000;fill-opacity:1"
       d="M 0 0 L 0 296.99996 L 210.0001 296.99996 L 210.0001 0 L 0 0 z M 23.749972 18.500163 A 5 5 0 0 1 28.750183 23.499858 A 5 5 0 0 1 23.749972 28.500069 A 5 5 0 0 1 18.74976 23.499858 A 5 5 0 0 1 23.749972 18.500163 z M 48.749996 18.500163 A 5 5 0 0 1 53.750208 23.499858 A 5 5 0 0 1 48.749996 28.500069 A 5 5 0 0 1 43.749784 23.499858 A 5 5 0 0 1 48.749996 18.500163 z M 73.75002 18.500163 A 5 5 0 0 1 78.750232 23.499858 A 5 5 0 0 1 73.75002 28.500069 A 5 5 0 0 1 68.749809 23.499858 A 5 5 0 0 1 73.75002 18.500163 z M 98.750045 18.500163 A 5 5 0 0 1 103.75026 23.499858 A 5 5 0 0 1 98.750045 28.500069 A 5 5 0 0 1 93.749833 23.499858 A 5 5 0 0 1 98.750045 18.500163 z M 123.75007 18.500163 A 5 5 0 0 1 128.74976 23.499858 A 5 5 0 0 1 123.75007 28.500069 A 5 5 0 0 1 118.74986 23.499858 A 5 5 0 0 1 123.75007 18.500163 z M 148.75009 18.500163 A 5 5 0 0 1 153.74979 23.499858 A 5 5 0 0 1 148.75009 28.500069 A 5 5 0 0 1 143.74988 23.499858 A 5 5 0 0 1 148.75009 18.500163 z M 173.75012 18.500163 A 5 5 0 0 1 178.74981 23.499858 A 5 5 0 0 1 173.75012 28.500069 A 5 5 0 0 1 168.74991 23.499858 A 5 5 0 0 1 173.75012 18.500163 z M 36.249984 31.000175 A 5 5 0 0 1 41.250195 35.99987 A 5 5 0 0 1 36.249984 41.000081 A 5 5 0 0 1 31.249772 35.99987 A 5 5 0 0 1 36.249984 31.000175 z M 61.250008 31.000175 A 5 5 0 0 1 66.25022 35.99987 A 5 5 0 0 1 61.250008 41.000081 A 5 5 0 0 1 56.249797 35.99987 A 5 5 0 0 1 61.250008 31.000175 z M 86.250033 31.000175 A 5 5 0 0 1 91.250244 35.99987 A 5 5 0 0 1 86.250033 41.000081 A 5 5 0 0 1 81.249821 35.99987 A 5 5 0 0 1 86.250033 31.000175 z M 111.25006 31.000175 A 5 5 0 0 1 116.24975 35.99987 A 5 5 0 0 1 111.25006 41.000081 A 5 5 0 0 1 106.24985 35.99987 A 5 5 0 0 1 111.25006 31.000175 z M 136.25008 31.000175 A 5 5 0 0 1 141.24978 35.99987 A 5 5 0 0 1 136.25008 41.000081 A 5 5 0 0 1 131.24987 35.99987 A 5 5 0 0 1 136.25008 31.000175 z M 161.25011 31.000175 A 5 5 0 0 1 166.2498 35.99987 A 5 5 0 0 1 161.25011 41.000081 A 5 5 0 0 1 156.24989 35.99987 A 5 5 0 0 1 161.25011 31.000175 z M 186.25013 31.000175 A 5 5 0 0 1 191.24983 35.99987 A 5 5 0 0 1 186.25013 41.000081 A 5 5 0 0 1 181.24992 35.99987 A 5 5 0 0 1 186.25013 31.000175 z M 23.749972 43.500187 A 5 5 0 0 1 28.750183 48.499882 A 5 5 0 0 1 23.749972 53.500094 A 5 5 0 0 1 18.74976 48.499882 A 5 5 0 0 1 23.749972 43.500187 z M 48.749996 43.500187 A 5 5 0 0 1 53.750208 48.499882 A 5 5 0 0 1 48.749996 53.500094 A 5 5 0 0 1 43.749784 48.499882 A 5 5 0 0 1 48.749996 43.500187 z M 73.75002 43.500187 A 5 5 0 0 1 78.750232 48.499882 A 5 5 0 0 1 73.75002 53.500094 A 5 5 0 0 1 68.749809 48.499882 A 5 5 0 0 1 73.75002 43.500187 z M 98.750045 43.500187 A 5 5 0 0 1 103.75026 48.499882 A 5 5 0 0 1 98.750045 53.500094 A 5 5 0 0 1 93.749833 48.499882 A 5 5 0 0 1 98.750045 43.500187 z M 123.75007 43.500187 A 5 5 0 0 1 128.74976 48.499882 A 5 5 0 0 1 123.75007 53.500094 A 5 5 0 0 1 118.74986 48.499882 A 5 5 0 0 1 123.75007 43.500187 z M 148.75009 43.500187 A 5 5 0 0 1 153.74979 48.499882 A 5 5 0 0 1 148.75009 53.500094 A 5 5 0 0 1 143.74988 48.499882 A 5 5 0 0 1 148.75009 43.500187 z M 173.75012 43.500187 A 5 5 0 0 1 178.74981 48.499882 A 5 5 0 0 1 173.75012 53.500094 A 5 5 0 0 1 168.74991 48.499882 A 5 5 0 0 1 173.75012 43.500187 z M 36.249984 56.000199 A 5 5 0 0 1 41.250195 60.999894 A 5 5 0 0 1 36.249984 66.000106 A 5 5 0 0 1 31.249772 60.999894 A 5 5 0 0 1 36.249984 56.000199 z M 61.250008 56.000199 A 5 5 0 0 1 66.25022 60.999894 A 5 5 0 0 1 61.250008 66.000106 A 5 5 0 0 1 56.249797 60.999894 A 5 5 0 0 1 61.250008 56.000199 z M 86.250033 56.000199 A 5 5 0 0 1 91.250244 60.999894 A 5 5 0 0 1 86.250033 66.000106 A 5 5 0 0 1 81.249821 60.999894 A 5 5 0 0 1 86.250033 56.000199 z M 111.25006 56.000199 A 5 5 0 0 1 116.24975 60.999894 A 5 5 0 0 1 111.25006 66.000106 A 5 5 0 0 1 106.24985 60.999894 A 5 5 0 0 1 111.25006 56.000199 z M 136.25008 56.000199 A 5 5 0 0 1 141.24978 60.999894 A 5 5 0 0 1 136.25008 66.000106 A 5 5 0 0 1 131.24987 60.999894 A 5 5 0 0 1 136.25008 56.000199 z M 161.25011 56.000199 A 5 5 0 0 1 166.2498 60.999894 A 5 5 0 0 1 161.25011 66.000106 A 5 5 0 0 1 156.24989 60.999894 A 5 5 0 0 1 161.25011 56.000199 z M 186.25013 56.000199 A 5 5 0 0 1 191.24983 60.999894 A 5 5 0 0 1 186.25013 66.000106 A 5 5 0 0 1 181.24992 60.999894 A 5 5 0 0 1 186.25013 56.000199 z M 23.749972 68.500212 A 5 5 0 0 1 28.750183 73.499906 A 5 5 0 0 1 23.749972 78.500118 A 5 5 0 0 1 18.74976 73.499906 A 5 5 0 0 1 23.749972 68.500212 z M 48.749996 68.500212 A 5 5 0 0 1 53.750208 73.499906 A 5 5 0 0 1 48.749996 78.500118 A 5 5 0 0 1 43.749784 73.499906 A 5 5 0 0 1 48.749996 68.500212 z M 73.75002 68.500212 A 5 5 0 0 1 78.750232 73.499906 A 5 5 0 0 1 73.75002 78.500118 A 5 5 0 0 1 68.749809 73.499906 A 5 5 0 0 1 73.75002 68.500212 z M 98.750045 68.500212 A 5 5 0 0 1 103.75026 73.499906 A 5 5 0 0 1 98.750045 78.500118 A 5 5 0 0 1 93.749833 73.499906 A 5 5 0 0 1 98.750045 68.500212 z M 123.75007 68.500212 A 5 5 0 0 1 128.74976 73.499906 A 5 5 0 0 1 123.75007 78.500118 A 5 5 0 0 1 118.74986 73.499906 A 5 5 0 0 1 123.75007 68.500212 z M 148.75009 68.500212 A 5 5 0 0 1 153.74979 73.499906 A 5 5 0 0 1 148.75009 78.500118 A 5 5 0 0 1 143.74988 73.499906 A 5 5 0 0 1 148.75009 68.500212 z M 173.75012 68.500212 A 5 5 0 0 1 178.74981 73.499906 A 5 5 0 0 1 173.75012 78.500118 A 5 5 0 0 1 168.74991 73.499906 A 5 5 0 0 1 173.75012 68.500212 z M 36.249984 81.000224 A 5 5 0 0 1 41.250195 85.999919 A 5 5 0 0 1 36.249984 91.00013 A 5 5 0 0 1 31.249772 85.999919 A 5 5 0 0 1 36.249984 81.000224 z M 61.250008 81.000224 A 5 5 0 0 1 66.25022 85.999919 A 5 5 0 0 1 61.250008 91.00013 A 5 5 0 0 1 56.249797 85.999919 A 5 5 0 0 1 61.250008 81.000224 z M 86.250033 81.000224 A 5 5 0 0 1 91.250244 85.999919 A 5 5 0 0 1 86.250033 91.00013 A 5 5 0 0 1 81.249821 85.999919 A 5 5 0 0 1 86.250033 81.000224 z M 111.25006 81.000224 A 5 5 0 0 1 116.24975 85.999919 A 5 5 0 0 1 111.25006 91.00013 A 5 5 0 0 1 106.24985 85.999919 A 5 5 0 0 1 111.25006 81.000224 z M 136.25008 81.000224 A 5 5 0 0 1 141.24978 85.999919 A 5 5 0 0 1 136.25008 91.00013 A 5 5 0 0 1 131.24987 85.999919 A 5 5 0 0 1 136.25008 81.000224 z M 161.25011 81.000224 A 5 5 0 0 1 166.2498 85.999919 A 5 5 0 0 1 161.25011 91.00013 A 5 5 0 0 1 156.24989 85.999919 A 5 5 0 0 1 161.25011 81.000224 z M 186.25013 81.000224 A 5 5 0 0 1 191.24983 85.999919 A 5 5 0 0 1 186.25013 91.00013 A 5 5 0 0 1 181.24992 85.999919 A 5 5 0 0 1 186.25013 81.000224 z M 23.749972 93.500236 A 5 5 0 0 1 28.750183 98.499931 A 5 5 0 0 1 23.749972 103.50014 A 5 5 0 0 1 18.74976 98.499931 A 5 5 0 0 1 23.749972 93.500236 z M 48.749996 93.500236 A 5 5 0 0 1 53.750208 98.499931 A 5 5 0 0 1 48.749996 103.50014 A 5 5 0 0 1 43.749784 98.499931 A 5 5 0 0 1 48.749996 93.500236 z M 73.75002 93.500236 A 5 5 0 0 1 78.750232 98.499931 A 5 5 0 0 1 73.75002 103.50014 A 5 5 0 0 1 68.749809 98.499931 A 5 5 0 0 1 73.75002 93.500236 z M 98.750045 93.500236 A 5 5 0 0 1 103.75026 98.499931 A 5 5 0 0 1 98.750045 103.50014 A 5 5 0 0 1 93.749833 98.499931 A 5 5 0 0 1 98.750045 93.500236 z M 123.75007 93.500236 A 5 5 0 0 1 128.74976 98.499931 A 5 5 0 0 1 123.75007 103.50014 A 5 5 0 0 1 118.74986 98.499931 A 5 5 0 0 1 123.75007 93.500236 z M 148.75009 93.500236 A 5 5 0 0 1 153.74979 98.499931 A 5 5 0 0 1 148.75009 103.50014 A 5 5 0 0 1 143.74988 98.499931 A 5 5 0 0 1 148.75009 93.500236 z M 173.75012 93.500236 A 5 5 0 0 1 178.74981 98.499931 A 5 5 0 0 1 173.75012 103.50014 A 5 5 0 0 1 168.74991 98.499931 A 5 5 0 0 1 173.75012 93.500236 z M 36.249984 106.00025 A 5 5 0 0 1 41.250195 110.99994 A 5 5 0 0 1 36.249984 116.00015 A 5 5 0 0 1 31.249772 110.99994 A 5 5 0 0 1 36.249984 106.00025 z M 61.250008 106.00025 A 5 5 0 0 1 66.25022 110.99994 A 5 5 0 0 1 61.250008 116.00015 A 5 5 0 0 1 56.249797 110.99994 A 5 5 0 0 1 61.250008 106.00025 z M 86.250033 106.00025 A 5 5 0 0 1 91.250244 110.99994 A 5 5 0 0 1 86.250033 116.00015 A 5 5 0 0 1 81.249821 110.99994 A 5 5 0 0 1 86.250033 106.00025 z M 111.25006 106.00025 A 5 5 0 0 1 116.24975 110.99994 A 5 5 0 0 1 111.25006 116.00015 A 5 5 0 0 1 106.24985 110.99994 A 5 5 0 0 1 111.25006 106.00025 z M 136.25008 106.00025 A 5 5 0 0 1 141.24978 110.99994 A 5 5 0 0 1 136.25008 116.00015 A 5 5 0 0 1 131.24987 110.99994 A 5 5 0 0 1 136.25008 106.00025 z M 161.25011 106.00025 A 5 5 0 0 1 166.2498 110.99994 A 5 5 0 0 1 161.25011 116.00015 A 5 5 0 0 1 156.24989 110.99994 A 5 5 0 0 1 161.25011 106.00025 z M 186.25013 106.00025 A 5 5 0 0 1 191.24983 110.99994 A 5 5 0 0 1 186.25013 116.00015 A 5 5 0 0 1 181.24992 110.99994 A 5 5 0 0 1 186.25013 106.00025 z M 23.749972 118.49974 A 5 5 0 0 1 28.750183 123.49996 A 5 5 0 0 1 23.749972 128.50017 A 5 5 0 0 1 18.74976 123.49996 A 5 5 0 0 1 23.749972 118.49974 z M 48.749996 118.49974 A 5 5 0 0 1 53.750208 123.49996 A 5 5 0 0 1 48.749996 128.50017 A 5 5 0 0 1 43.749784 123.49996 A 5 5 0 0 1 48.749996 118.49974 z M 73.75002 118.49974 A 5 5 0 0 1 78.750232 123.49996 A 5 5 0 0 1 73.75002 128.50017 A 5 5 0 0 1 68.749809 123.49996 A 5 5 0 0 1 73.75002 118.49974 z M 98.750045 118.49974 A 5 5 0 0 1 103.75026 123.49996 A 5 5 0 0 1 98.750045 128.50017 A 5 5 0 0 1 93.749833 123.49996 A 5 5 0 0 1 98.750045 118.49974 z M 123.75007 118.49974 A 5 5 0 0 1 128.74976 123.49996 A 5 5 0 0 1 123.75007 128.50017 A 5 5 0 0 1 118.74986 123.49996 A 5 5 0 0 1 123.75007 118.49974 z M 148.75009 118.49974 A 5 5 0 0 1 153.74979 123.49996 A 5 5 0 0 1 148.75009 128.50017 A 5 5 0 0 1 143.74988 123.49996 A 5 5 0 0 1 148.75009 118.49974 z M 173.75012 118.49974 A 5 5 0 0 1 178.74981 123.49996 A 5 5 0 0 1 173.75012 128.50017 A 5 5 0 0 1 168.74991 123.49996 A 5 5 0 0 1 173.75012 118.49974 z M 36.249984 130.99976 A 5 5 0 0 1 41.250195 135.99997 A 5 5 0 0 1 36.249984 141.00018 A 5 5 0 0 1 31.249772 135.99997 A 5 5 0 0 1 36.249984 130.99976 z M 61.250008 130.99976 A 5 5 0 0 1 66.25022 135.99997 A 5 5 0 0 1 61.250008 141.00018 A 5 5 0 0 1 56.249797 135.99997 A 5 5 0 0 1 61.250008 130.99976 z M 86.250033 130.99976 A 5 5 0 0 1 91.250244 135.99997 A 5 5 0 0 1 86.250033 141.00018 A 5 5 0 0 1 81.249821 135.99997 A 5 5 0 0 1 86.250033 130.99976 z M 111.25006 130.99976 A 5 5 0 0 1 116.24975 135.99997 A 5 5 0 0 1 111.25006 141.00018 A 5 5 0 0 1 106.24985 135.99997 A 5 5 0 0 1 111.25006 130.99976 z M 136.25008 130.99976 A 5 5 0 0 1 141.24978 135.99997 A 5 5 0 0 1 136.25008 141.00018 A 5 5 0 0 1 131.24987 135.99997 A 5 5 0 0 1 136.25008 130.99976 z M 161.25011 130.99976 A 5 5 0 0 1 166.2498 135.99997 A 5 5 0 0 1 161.25011 141.00018 A 5 5 0 0 1 156.24989 135.99997 A 5 5 0 0 1 161.25011 130.99976 z M 186.25013 130.99976 A 5 5 0 0 1 191.24983 135.99997 A 5 5 0 0 1 186.25013 141.00018 A 5 5 0 0 1 181.24992 135.99997 A 5 5 0 0 1 186.25013 130.99976 z M 23.749972 143.49977 A 5 5 0 0 1 28.750183 148.49998 A 5 5 0 0 1 23.749972 153.50019 A 5 5 0 0 1 18.74976 148.49998 A 5 5 0 0 1 23.749972 143.49977 z M 48.749996 143.49977 A 5 5 0 0 1 53.750208 148.49998 A 5 5 0 0 1 48.749996 153.50019 A 5 5 0 0 1 43.749784 148.49998 A 5 5 0 0 1 48.749996 143.49977 z M 73.75002 143.49977 A 5 5 0 0 1 78.750232 148.49998 A 5 5 0 0 1 73.75002 153.50019 A 5 5 0 0 1 68.749809 148.49998 A 5 5 0 0 1 73.75002 143.49977 z M 98.750045 143.49977 A 5 5 0 0 1 103.75026 148.49998 A 5 5 0 0 1 98.750045 153.50019 A 5 5 0 0 1 93.749833 148.49998 A 5 5 0 0 1 98.750045 143.49977 z M 123.75007 143.49977 A 5 5 0 0 1 128.74976 148.49998 A 5 5 0 0 1 123.75007 153.50019 A 5 5 0 0 1 118.74986 148.49998 A 5 5 0 0 1 123.75007 143.49977 z M 148.75009 143.49977 A 5 5 0 0 1 153.74979 148.49998 A 5 5 0 0 1 148.75009 153.50019 A 5 5 0 0 1 143.74988 148.49998 A 5 5 0 0 1 148.75009 143.49977 z M 173.75012 143.49977 A 5 5 0 0 1 178.74981 148.49998 A 5 5 0 0 1 173.75012 153.50019 A 5 5 0 0 1 168.74991 148.49998 A 5 5 0 0 1 173.75012 143.49977 z M 36.249984 155.99978 A 5 5 0 0 1 41.250195 160.99999 A 5 5 0 0 1 36.249984 166.0002 A 5 5 0 0 1 31.249772 160.99999 A 5 5 0 0 1 36.249984 155.99978 z M 61.250008 155.99978 A 5 5 0 0 1 66.25022 160.99999 A 5 5 0 0 1 61.250008 166.0002 A 5 5 0 0 1 56.249797 160.99999 A 5 5 0 0 1 61.250008 155.99978 z M 86.250033 155.99978 A 5 5 0 0 1 91.250244 160.99999 A 5 5 0 0 1 86.250033 166.0002 A 5 5 0 0 1 81.249821 160.99999 A 5 5 0 0 1 86.250033 155.99978 z M 111.25006 155.99978 A 5 5 0 0 1 116.24975 160.99999 A 5 5 0 0 1 111.25006 166.0002 A 5 5 0 0 1 106.24985 160.99999 A 5 5 0 0 1 111.25006 155.99978 z M 136.25008 155.99978 A 5 5 0 0 1 141.24978 160.99999 A 5 5 0 0 1 136.25008 166.0002 A 5 5 0 0 1 131.24987 160.99999 A 5 5 0 0 1 136.25008 155.99978 z M 161.25011 155.99978 A 5 5 0 0 1 166.2498 160.99999 A 5 5 0 0 1 161.25011 166.0002 A 5 5 0 0 1 156.24989 160.99999 A 5 5 0 0 1 161.25011 155.99978 z M 186.25013 155.99978 A 5 5 0 0 1 191.24983 160.99999 A 5 5 0 0 1 186.25013 166.0002 A 5 5 0 0 1 181.24992 160.99999 A 5 5 0 0 1 186.25013 155.99978 z M 23.749972 168.49979 A 5 5 0 0 1 28.750183 173.5 A 5 5 0 0 1 23.749972 178.50022 A 5 5 0 0 1 18.74976 173.5 A 5 5 0 0 1 23.749972 168.49979 z M 48.749996 168.49979 A 5 5 0 0 1 53.750208 173.5 A 5 5 0 0 1 48.749996 178.50022 A 5 5 0 0 1 43.749784 173.5 A 5 5 0 0 1 48.749996 168.49979 z M 73.75002 168.49979 A 5 5 0 0 1 78.750232 173.5 A 5 5 0 0 1 73.75002 178.50022 A 5 5 0 0 1 68.749809 173.5 A 5 5 0 0 1 73.75002 168.49979 z M 98.750045 168.49979 A 5 5 0 0 1 103.75026 173.5 A 5 5 0 0 1 98.750045 178.50022 A 5 5 0 0 1 93.749833 173.5 A 5 5 0 0 1 98.750045 168.49979 z M 123.75007 168.49979 A 5 5 0 0 1 128.74976 173.5 A 5 5 0 0 1 123.75007 178.50022 A 5 5 0 0 1 118.74986 173.5 A 5 5 0 0 1 123.75007 168.49979 z M 148.75009 168.49979 A 5 5 0 0 1 153.74979 173.5 A 5 5 0 0 1 148.75009 178.50022 A 5 5 0 0 1 143.74988 173.5 A 5 5 0 0 1 148.75009 168.49979 z M 173.75012 168.49979 A 5 5 0 0 1 178.74981 173.5 A 5 5 0 0 1 173.75012 178.50022 A 5 5 0 0 1 168.74991 173.5 A 5 5 0 0 1 173.75012 168.49979 z M 36.249984 180.9998 A 5 5 0 0 1 41.250195 186.00002 A 5 5 0 0 1 36.249984 191.00023 A 5 5 0 0 1 31.249772 186.00002 A 5 5 0 0 1 36.249984 180.9998 z M 61.250008 180.9998 A 5 5 0 0 1 66.25022 186.00002 A 5 5 0 0 1 61.250008 191.00023 A 5 5 0 0 1 56.249797 186.00002 A 5 5 0 0 1 61.250008 180.9998 z M 86.250033 180.9998 A 5 5 0 0 1 91.250244 186.00002 A 5 5 0 0 1 86.250033 191.00023 A 5 5 0 0 1 81.249821 186.00002 A 5 5 0 0 1 86.250033 180.9998 z M 111.25006 180.9998 A 5 5 0 0 1 116.24975 186.00002 A 5 5 0 0 1 111.25006 191.00023 A 5 5 0 0 1 106.24985 186.00002 A 5 5 0 0 1 111.25006 180.9998 z M 136.25008 180.9998 A 5 5 0 0 1 141.24978 186.00002 A 5 5 0 0 1 136.25008 191.00023 A 5 5 0 0 1 131.24987 186.00002 A 5 5 0 0 1 136.25008 180.9998 z M 161.25011 180.9998 A 5 5 0 0 1 166.2498 186.00002 A 5 5 0 0 1 161.25011 191.00023 A 5 5 0 0 1 156.24989 186.00002 A 5 5 0 0 1 161.25011 180.9998 z M 186.25013 180.9998 A 5 5 0 0 1 191.24983 186.00002 A 5 5 0 0 1 186.25013 191.00023 A 5 5 0 0 1 181.24992 186.00002 A 5 5 0 0 1 186.25013 180.9998 z M 23.749972 193.49982 A 5 5 0 0 1 28.750183 198.50003 A 5 5 0 0 1 23.749972 203.50024 A 5 5 0 0 1 18.74976 198.50003 A 5 5 0 0 1 23.749972 193.49982 z M 48.749996 193.49982 A 5 5 0 0 1 53.750208 198.50003 A 5 5 0 0 1 48.749996 203.50024 A 5 5 0 0 1 43.749784 198.50003 A 5 5 0 0 1 48.749996 193.49982 z M 73.75002 193.49982 A 5 5 0 0 1 78.750232 198.50003 A 5 5 0 0 1 73.75002 203.50024 A 5 5 0 0 1 68.749809 198.50003 A 5 5 0 0 1 73.75002 193.49982 z M 98.750045 193.49982 A 5 5 0 0 1 103.75026 198.50003 A 5 5 0 0 1 98.750045 203.50024 A 5 5 0 0 1 93.749833 198.50003 A 5 5 0 0 1 98.750045 193.49982 z M 123.75007 193.49982 A 5 5 0 0 1 128.74976 198.50003 A 5 5 0 0 1 123.75007 203.50024 A 5 5 0 0 1 118.74986 198.50003 A 5 5 0 0 1 123.75007 193.49982 z M 148.75009 193.49982 A 5 5 0 0 1 153.74979 198.50003 A 5 5 0 0 1 148.75009 203.50024 A 5 5 0 0 1 143.74988 198.50003 A 5 5 0 0 1 148.75009 193.49982 z M 173.75012 193.49982 A 5 5 0 0 1 178.74981 198.50003 A 5 5 0 0 1 173.75012 203.50024 A 5 5 0 0 1 168.74991 198.50003 A 5 5 0 0 1 173.75012 193.49982 z M 36.249984 205.99983 A 5 5 0 0 1 41.250195 211.00004 A 5 5 0 0 1 36.249984 216.00025 A 5 5 0 0 1 31.249772 211.00004 A 5 5 0 0 1 36.249984 205.99983 z M 61.250008 205.99983 A 5 5 0 0 1 66.25022 211.00004 A 5 5 0 0 1 61.250008 216.00025 A 5 5 0 0 1 56.249797 211.00004 A 5 5 0 0 1 61.250008 205.99983 z M 86.250033 205.99983 A 5 5 0 0 1 91.250244 211.00004 A 5 5 0 0 1 86.250033 216.00025 A 5 5 0 0 1 81.249821 211.00004 A 5 5 0 0 1 86.250033 205.99983 z M 111.25006 205.99983 A 5 5 0 0 1 116.24975 211.00004 A 5 5 0 0 1 111.25006 216.00025 A 5 5 0 0 1 106.24985 211.00004 A 5 5 0 0 1 111.25006 205.99983 z M 136.25008 205.99983 A 5 5 0 0 1 141.24978 211.00004 A 5 5 0 0 1 136.25008 216.00025 A 5 5 0 0 1 131.24987 211.00004 A 5 5 0 0 1 136.25008 205.99983 z M 161.25011 205.99983 A 5 5 0 0 1 166.2498 211.00004 A 5 5 0 0 1 161.25011 216.00025 A 5 5 0 0 1 156.24989 211.00004 A 5 5 0 0 1 161.25011 205.99983 z M 186.25013 205.99983 A 5 5 0 0 1 191.24983 211.00004 A 5 5 0 0 1 186.25013 216.00025 A 5 5 0 0 1 181.24992 211.00004 A 5 5 0 0 1 186.25013 205.99983 z M 23.749972 218.49984 A 5 5 0 0 1 28.750183 223.50005 A 5 5 0 0 1 23.749972 228.49975 A 5 5 0 0 1 18.74976 223.50005 A 5 5 0 0 1 23.749972 218.49984 z M 48.749996 218.49984 A 5 5 0 0 1 53.750208 223.50005 A 5 5 0 0 1 48.749996 228.49975 A 5 5 0 0 1 43.749784 223.50005 A 5 5 0 0 1 48.749996 218.49984 z M 73.75002 218.49984 A 5 5 0 0 1 78.750232 223.50005 A 5 5 0 0 1 73.75002 228.49975 A 5 5 0 0 1 68.749809 223.50005 A 5 5 0 0 1 73.75002 218.49984 z M 98.750045 218.49984 A 5 5 0 0 1 103.75026 223.50005 A 5 5 0 0 1 98.750045 228.49975 A 5 5 0 0 1 93.749833 223.50005 A 5 5 0 0 1 98.750045 218.49984 z M 123.75007 218.49984 A 5 5 0 0 1 128.74976 223.50005 A 5 5 0 0 1 123.75007 228.49975 A 5 5 0 0 1 118.74986 223.50005 A 5 5 0 0 1 123.75007 218.49984 z M 148.75009 218.49984 A 5 5 0 0 1 153.74979 223.50005 A 5 5 0 0 1 148.75009 228.49975 A 5 5 0 0 1 143.74988 223.50005 A 5 5 0 0 1 148.75009 218.49984 z M 173.75012 218.49984 A 5 5 0 0 1 178.74981 223.50005 A 5 5 0 0 1 173.75012 228.49975 A 5 5 0 0 1 168.74991 223.50005 A 5 5 0 0 1 173.75012 218.49984 z M 36.249984 230.99985 A 5 5 0 0 1 41.250195 236.00007 A 5 5 0 0 1 36.249984 240.99976 A 5 5 0 0 1 31.249772 236.00007 A 5 5 0 0 1 36.249984 230.99985 z M 61.250008 230.99985 A 5 5 0 0 1 66.25022 236.00007 A 5 5 0 0 1 61.250008 240.99976 A 5 5 0 0 1 56.249797 236.00007 A 5 5 0 0 1 61.250008 230.99985 z M 86.250033 230.99985 A 5 5 0 0 1 91.250244 236.00007 A 5 5 0 0 1 86.250033 240.99976 A 5 5 0 0 1 81.249821 236.00007 A 5 5 0 0 1 86.250033 230.99985 z M 111.25006 230.99985 A 5 5 0 0 1 116.24975 236.00007 A 5 5 0 0 1 111.25006 240.99976 A 5 5 0 0 1 106.24985 236.00007 A 5 5 0 0 1 111.25006 230.99985 z M 136.25008 230.99985 A 5 5 0 0 1 141.24978 236.00007 A 5 5 0 0 1 136.25008 240.99976 A 5 5 0 0 1 131.24987 236.00007 A 5 5 0 0 1 136.25008 230.99985 z M 161.25011 230.99985 A 5 5 0 0 1 166.2498 236.00007 A 5 5 0 0 1 161.25011 240.99976 A 5 5 0 0 1 156.24989 236.00007 A 5 5 0 0 1 161.25011 230.99985 z M 186.25013 230.99985 A 5 5 0 0 1 191.24983 236.00007 A 5 5 0 0 1 186.25013 240.99976 A 5 5 0 0 1 181.24992 236.00007 A 5 5 0 0 1 186.25013 230.99985 z M 23.749972 243.49987 A 5 5 0 0 1 28.750183 248.50008 A 5 5 0 0 1 23.749972 253.49977 A 5 5 0 0 1 18.74976 248.50008 A 5 5 0 0 1 23.749972 243.49987 z M 48.749996 243.49987 A 5 5 0 0 1 53.750208 248.50008 A 5 5 0 0 1 48.749996 253.49977 A 5 5 0 0 1 43.749784 248.50008 A 5 5 0 0 1 48.749996 243.49987 z M 73.75002 243.49987 A 5 5 0 0 1 78.750232 248.50008 A 5 5 0 0 1 73.75002 253.49977 A 5 5 0 0 1 68.749809 248.50008 A 5 5 0 0 1 73.75002 243.49987 z M 98.750045 243.49987 A 5 5 0 0 1 103.75026 248.50008 A 5 5 0 0 1 98.750045 253.49977 A 5 5 0 0 1 93.749833 248.50008 A 5 5 0 0 1 98.750045 243.49987 z M 123.75007 243.49987 A 5 5 0 0 1 128.74976 248.50008 A 5 5 0 0 1 123.75007 253.49977 A 5 5 0 0 1 118.74986 248.50008 A 5 5 0 0 1 123.75007 243.49987 z M 148.75009 243.49987 A 5 5 0 0 1 153.74979 248.50008 A 5 5 0 0 1 148.75009 253.49977 A 5 5 0 0 1 143.74988 248.50008 A 5 5 0 0 1 148.75009 243.49987 z M 173.75012 243.49987 A 5 5 0 0 1 178.74981 248.50008 A 5 5 0 0 1 173.75012 253.49977 A 5 5 0 0 1 168.74991 248.50008 A 5 5 0 0 1 173.75012 243.49987 z M 36.249984 255.99988 A 5 5 0 0 1 41.250195 261.00009 A 5 5 0 0 1 36.249984 265.99978 A 5 5 0 0 1 31.249772 261.00009 A 5 5 0 0 1 36.249984 255.99988 z M 61.250008 255.99988 A 5 5 0 0 1 66.25022 261.00009 A 5 5 0 0 1 61.250008 265.99978 A 5 5 0 0 1 56.249797 261.00009 A 5 5 0 0 1 61.250008 255.99988 z M 86.250033 255.99988 A 5 5 0 0 1 91.250244 261.00009 A 5 5 0 0 1 86.250033 265.99978 A 5 5 0 0 1 81.249821 261.00009 A 5 5 0 0 1 86.250033 255.99988 z M 111.25006 255.99988 A 5 5 0 0 1 116.24975 261.00009 A 5 5 0 0 1 111.25006 265.99978 A 5 5 0 0 1 106.24985 261.00009 A 5 5 0 0 1 111.25006 255.99988 z M 136.25008 255.99988 A 5 5 0 0 1 141.24978 261.00009 A 5 5 0 0 1 136.25008 265.99978 A 5 5 0 0 1 131.24987 261.00009 A 5 5 0 0 1 136.25008 255.99988 z M 161.25011 255.99988 A 5 5 0 0 1 166.2498 261.00009 A 5 5 0 0 1 161.25011 265.99978 A 5 5 0 0 1 156.24989 261.00009 A 5 5 0 0 1 161.25011 255.99988 z M 186.25013 255.99988 A 5 5 0 0 1 191.24983 261.00009 A 5 5 0 0 1 186.25013 265.99978 A 5 5 0 0 1 181.24992 261.00009 A 5 5 0 0 1 186.25013 255.99988 z M 23.749972 268.49989 A 5 5 0 0 1 28.750183 273.5001 A 5 5 0 0 1 23.749972 278.4998 A 5 5 0 0 1 18.74976 273.5001 A 5 5 0 0 1 23.749972 268.49989 z M 48.749996 268.49989 A 5 5 0 0 1 53.750208 273.5001 A 5 5 0 0 1 48.749996 278.4998 A 5 5 0 0 1 43.749784 273.5001 A 5 5 0 0 1 48.749996 268.49989 z M 73.75002 268.49989 A 5 5 0 0 1 78.750232 273.5001 A 5 5 0 0 1 73.75002 278.4998 A 5 5 0 0 1 68.749809 273.5001 A 5 5 0 0 1 73.75002 268.49989 z M 98.750045 268.49989 A 5 5 0 0 1 103.75026 273.5001 A 5 5 0 0 1 98.750045 278.4998 A 5 5 0 0 1 93.749833 273.5001 A 5 5 0 0 1 98.750045 268.49989 z M 123.75007 268.49989 A 5 5 0 0 1 128.74976 273.5001 A 5 5 0 0 1 123.75007 278.4998 A 5 5 0 0 1 118.74986 273.5001 A 5 5 0 0 1 123.75007 268.49989 z M 148.75009 268.49989 A 5 5 0 0 1 153.74979 273.5001 A 5 5 0 0 1 148.75009 278.4998 A 5 5 0 0 1 143.74988 273.5001 A 5 5 0 0 1 148.75009 268.49989 z M 173.75012 268.49989 A 5 5 0 0 1 178.74981 273.5001 A 5 5 0 0 1 173.75012 278.4998 A 5 5 0 0 1 168.74991 273.5001 A 5 5 0 0 1 173.75012 268.49989 z " />
    <path
       id="circle1"
       d="M 23.749972 18.500163 A 5 5 0 0 0 18.74976 23.499858 A 5 5 0 0 0 23.749972 28.500069 A 5 5 0 0 0 28.750183 23.499858 A 5 5 0 0 0 23.749972 18.500163 z M 48.749996 18.500163 A 5 5 0 0 0 43.749784 23.499858 A 5 5 0 0 0 48.749996 28.500069 A 5 5 0 0 0 53.750208 23.499858 A 5 5 0 0 0 48.749996 18.500163 z M 73.75002 18.500163 A 5 5 0 0 0 68.749809 23.499858 A 5 5 0 0 0 73.75002 28.500069 A 5 5 0 0 0 78.750232 23.499858 A 5 5 0 0 0 73.75002 18.500163 z M 98.750045 18.500163 A 5 5 0 0 0 93.749833 23.499858 A 5 5 0 0 0 98.750045 28.500069 A 5 5 0 0 0 103.75026 23.499858 A 5 5 0 0 0 98.750045 18.500163 z M 123.75007 18.500163 A 5 5 0 0 0 118.74986 23.499858 A 5 5 0 0 0 123.75007 28.500069 A 5 5 0 0 0 128.74976 23.499858 A 5 5 0 0 0 123.75007 18.500163 z M 148.75009 18.500163 A 5 5 0 0 0 143.74988 23.499858 A 5 5 0 0 0 148.75009 28.500069 A 5 5 0 0 0 153.74979 23.499858 A 5 5 0 0 0 148.75009 18.500163 z M 173.75012 18.500163 A 5 5 0 0 0 168.74991 23.499858 A 5 5 0 0 0 173.75012 28.500069 A 5 5 0 0 0 178.74981 23.499858 A 5 5 0 0 0 173.75012 18.500163 z M 36.249984 31.000175 A 5 5 0 0 0 31.249772 35.99987 A 5 5 0 0 0 36.249984 41.000081 A 5 5 0 0 0 41.250195 35.99987 A 5 5 0 0 0 36.249984 31.000175 z M 61.250008 31.000175 A 5 5 0 0 0 56.249797 35.99987 A 5 5 0 0 0 61.250008 41.000081 A 5 5 0 0 0 66.25022 35.99987 A 5 5 0 0 0 61.250008 31.000175 z M 86.250033 31.000175 A 5 5 0 0 0 81.249821 35.99987 A 5 5 0 0 0 86.250033 41.000081 A 5 5 0 0 0 91.250244 35.99987 A 5 5 0 0 0 86.250033 31.000175 z M 111.25006 31.000175 A 5 5 0 0 0 106.24985 35.99987 A 5 5 0 0 0 111.25006 41.000081 A 5 5 0 0 0 116.24975 35.99987 A 5 5 0 0 0 111.25006 31.000175 z M 136.25008 31.000175 A 5 5 0 0 0 131.24987 35.99987 A 5 5 0 0 0 136.25008 41.000081 A 5 5 0 0 0 141.24978 35.99987 A 5 5 0 0 0 136.25008 31.000175 z M 161.25011 31.000175 A 5 5 0 0 0 156.24989 35.99987 A 5 5 0 0 0 161.25011 41.000081 A 5 5 0 0 0 166.2498 35.99987 A 5 5 0 0 0 161.25011 31.000175 z M 186.25013 31.000175 A 5 5 0 0 0 181.24992 35.99987 A 5 5 0 0 0 186.25013 41.000081 A 5 5 0 0 0 191.24983 35.99987 A 5 5 0 0 0 186.25013 31.000175 z M 23.749972 43.500187 A 5 5 0 0 0 18.74976 48.499882 A 5 5 0 0 0 23.749972 53.500094 A 5 5 0 0 0 28.750183 48.499882 A 5 5 0 0 0 23.749972 43.500187 z M 48.749996 43.500187 A 5 5 0 0 0 43.749784 48.499882 A 5 5 0 0 0 48.749996 53.500094 A 5 5 0 0 0 53.750208 48.499882 A 5 5 0 0 0 48.749996 43.500187 z M 73.75002 43.500187 A 5 5 0 0 0 68.749809 48.499882 A 5 5 0 0 0 73.75002 53.500094 A 5 5 0 0 0 78.750232 48.499882 A 5 5 0 0 0 73.75002 43.500187 z M 98.750045 43.500187 A 5 5 0 0 0 93.749833 48.499882 A 5 5 0 0 0 98.750045 53.500094 A 5 5 0 0 0 103.75026 48.499882 A 5 5 0 0 0 98.750045 43.500187 z M 123.75007 43.500187 A 5 5 0 0 0 118.74986 48.499882 A 5 5 0 0 0 123.75007 53.500094 A 5 5 0 0 0 128.74976 48.499882 A 5 5 0 0 0 123.75007 43.500187 z M 148.75009 43.500187 A 5 5 0 0 0 143.74988 48.499882 A 5 5 0 0 0 148.75009 53.500094 A 5 5 0 0 0 153.74979 48.499882 A 5 5 0 0 0 148.75009 43.500187 z M 173.75012 43.500187 A 5 5 0 0 0 168.74991 48.499882 A 5 5 0 0 0 173.75012 53.500094 A 5 5 0 0 0 178.74981 48.499882 A 5 5 0 0 0 173.75012 43.500187 z M 36.249984 56.000199 A 5 5 0 0 0 31.249772 60.999894 A 5 5 0 0 0 36.249984 66.000106 A 5 5 0 0 0 41.250195 60.999894 A 5 5 0 0 0 36.249984 56.000199 z M 61.250008 56.000199 A 5 5 0 0 0 56.249797 60.999894 A 5 5 0 0 0 61.250008 66.000106 A 5 5 0 0 0 66.25022 60.999894 A 5 5 0 0 0 61.250008 56.000199 z M 86.250033 56.000199 A 5 5 0 0 0 81.249821 60.999894 A 5 5 0 0 0 86.250033 66.000106 A 5 5 0 0 0 91.250244 60.999894 A 5 5 0 0 0 86.250033 56.000199 z M 111.25006 56.000199 A 5 5 0 0 0 106.24985 60.999894 A 5 5 0 0 0 111.25006 66.000106 A 5 5 0 0 0 116.24975 60.999894 A 5 5 0 0 0 111.25006 56.000199 z M 136.25008 56.000199 A 5 5 0 0 0 131.24987 60.999894 A 5 5 0 0 0 136.25008 66.000106 A 5 5 0 0 0 141.24978 60.999894 A 5 5 0 0 0 136.25008 56.000199 z M 161.25011 56.000199 A 5 5 0 0 0 156.24989 60.999894 A 5 5 0 0 0 161.25011 66.000106 A 5 5 0 0 0 166.2498 60.999894 A 5 5 0 0 0 161.25011 56.000199 z M 186.25013 56.000199 A 5 5 0 0 0 181.24992 60.999894 A 5 5 0 0 0 186.25013 66.000106 A 5 5 0 0 0 191.24983 60.999894 A 5 5 0 0 0 186.25013 56.000199 z M 23.749972 68.500212 A 5 5 0 0 0 18.74976 73.499906 A 5 5 0 0 0 23.749972 78.500118 A 5 5 0 0 0 28.750183 73.499906 A 5 5 0 0 0 23.749972 68.500212 z M 48.749996 68.500212 A 5 5 0 0 0 43.749784 73.499906 A 5 5 0 0 0 48.749996 78.500118 A 5 5 0 0 0 53.750208 73.499906 A 5 5 0 0 0 48.749996 68.500212 z M 73.75002 68.500212 A 5 5 0 0 0 68.749809 73.499906 A 5 5 0 0 0 73.75002 78.500118 A 5 5 0 0 0 78.750232 73.499906 A 5 5 0 0 0 73.75002 68.500212 z M 98.750045 68.500212 A 5 5 0 0 0 93.749833 73.499906 A 5 5 0 0 0 98.750045 78.500118 A 5 5 0 0 0 103.75026 73.499906 A 5 5 0 0 0 98.750045 68.500212 z M 123.75007 68.500212 A 5 5 0 0 0 118.74986 73.499906 A 5 5 0 0 0 123.75007 78.500118 A 5 5 0 0 0 128.74976 73.499906 A 5 5 0 0 0 123.75007 68.500212 z M 148.75009 68.500212 A 5 5 0 0 0 143.74988 73.499906 A 5 5 0 0 0 148.75009 78.500118 A 5 5 0 0 0 153.74979 73.499906 A 5 5 0 0 0 148.75009 68.500212 z M 173.75012 68.500212 A 5 5 0 0 0 168.74991 73.499906 A 5 5 0 0 0 173.75012 78.500118 A 5 5 0 0 0 178.74981 73.499906 A 5 5 0 0 0 173.75012 68.500212 z M 36.249984 81.000224 A 5 5 0 0 0 31.249772 85.999919 A 5 5 0 0 0 36.249984 91.00013 A 5 5 0 0 0 41.250195 85.999919 A 5 5 0 0 0 36.249984 81.000224 z M 61.250008 81.000224 A 5 5 0 0 0 56.249797 85.999919 A 5 5 0 0 0 61.250008 91.00013 A 5 5 0 0 0 66.25022 85.999919 A 5 5 0 0 0 61.250008 81.000224 z M 86.250033 81.000224 A 5 5 0 0 0 81.249821 85.999919 A 5 5 0 0 0 86.250033 91.00013 A 5 5 0 0 0 91.250244 85.999919 A 5 5 0 0 0 86.250033 81.000224 z M 111.25006 81.000224 A 5 5 0 0 0 106.24985 85.999919 A 5 5 0 0 0 111.25006 91.00013 A 5 5 0 0 0 116.24975 85.999919 A 5 5 0 0 0 111.25006 81.000224 z M 136.25008 81.000224 A 5 5 0 0 0 131.24987 85.999919 A 5 5 0 0 0 136.25008 91.00013 A 5 5 0 0 0 141.24978 85.999919 A 5 5 0 0 0 136.25008 81.000224 z M 161.25011 81.000224 A 5 5 0 0 0 156.24989 85.999919 A 5 5 0 0 0 161.25011 91.00013 A 5 5 0 0 0 166.2498 85.999919 A 5 5 0 0 0 161.25011 81.000224 z M 186.25013 81.000224 A 5 5 0 0 0 181.24992 85.999919 A 5 5 0 0 0 186.25013 91.00013 A 5 5 0 0 0 191.24983 85.999919 A 5 5 0 0 0 186.25013 81.000224 z M 23.749972 93.500236 A 5 5 0 0 0 18.74976 98.499931 A 5 5 0 0 0 23.749972 103.50014 A 5 5 0 0 0 28.750183 98.499931 A 5 5 0 0 0 23.749972 93.500236 z M 48.749996 93.500236 A 5 5 0 0 0 43.749784 98.499931 A 5 5 0 0 0 48.749996 103.50014 A 5 5 0 0 0 53.750208 98.499931 A 5 5 0 0 0 48.749996 93.500236 z M 73.75002 93.500236 A 5 5 0 0 0 68.749809 98.499931 A 5 5 0 0 0 73.75002 103.50014 A 5 5 0 0 0 78.750232 98.499931 A 5 5 0 0 0 73.75002 93.500236 z M 98.750045 93.500236 A 5 5 0 0 0 93.749833 98.499931 A 5 5 0 0 0 98.750045 103.50014 A 5 5 0 0 0 103.75026 98.499931 A 5 5 0 0 0 98.750045 93.500236 z M 123.75007 93.500236 A 5 5 0 0 0 118.74986 98.499931 A 5 5 0 0 0 123.75007 103.50014 A 5 5 0 0 0 128.74976 98.499931 A 5 5 0 0 0 123.75007 93.500236 z M 148.75009 93.500236 A 5 5 0 0 0 143.74988 98.499931 A 5 5 0 0 0 148.75009 103.50014 A 5 5 0 0 0 153.74979 98.499931 A 5 5 0 0 0 148.75009 93.500236 z M 173.75012 93.500236 A 5 5 0 0 0 168.74991 98.499931 A 5 5 0 0 0 173.75012 103.50014 A 5 5 0 0 0 178.74981 98.499931 A 5 5 0 0 0 173.75012 93.500236 z M 36.249984 106.00025 A 5 5 0 0 0 31.249772 110.99994 A 5 5 0 0 0 36.249984 116.00015 A 5 5 0 0 0 41.250195 110.99994 A 5 5 0 0 0 36.249984 106.00025 z M 61.250008 106.00025 A 5 5 0 0 0 56.249797 110.99994 A 5 5 0 0 0 61.250008 116.00015 A 5 5 0 0 0 66.25022 110.99994 A 5 5 0 0 0 61.250008 106.00025 z M 86.250033 106.00025 A 5 5 0 0 0 81.249821 110.99994 A 5 5 0 0 0 86.250033 116.00015 A 5 5 0 0 0 91.250244 110.99994 A 5 5 0 0 0 86.250033 106.00025 z M 111.25006 106.00025 A 5 5 0 0 0 106.24985 110.99994 A 5 5 0 0 0 111.25006 116.00015 A 5 5 0 0 0 116.24975 110.99994 A 5 5 0 0 0 111.25006 106.00025 z M 136.25008 106.00025 A 5 5 0 0 0 131.24987 110.99994 A 5 5 0 0 0 136.25008 116.00015 A 5 5 0 0 0 141.24978 110.99994 A 5 5 0 0 0 136.25008 106.00025 z M 161.25011 106.00025 A 5 5 0 0 0 156.24989 110.99994 A 5 5 0 0 0 161.25011 116.00015 A 5 5 0 0 0 166.2498 110.99994 A 5 5 0 0 0 161.25011 106.00025 z M 186.25013 106.00025 A 5 5 0 0 0 181.24992 110.99994 A 5 5 0 0 0 186.25013 116.00015 A 5 5 0 0 0 191.24983 110.99994 A 5 5 0 0 0 186.25013 106.00025 z M 23.749972 118.49974 A 5 5 0 0 0 18.74976 123.49996 A 5 5 0 0 0 23.749972 128.50017 A 5 5 0 0 0 28.750183 123.49996 A 5 5 0 0 0 23.749972 118.49974 z M 48.749996 118.49974 A 5 5 0 0 0 43.749784 123.49996 A 5 5 0 0 0 48.749996 128.50017 A 5 5 0 0 0 53.750208 123.49996 A 5 5 0 0 0 48.749996 118.49974 z M 73.75002 118.49974 A 5 5 0 0 0 68.749809 123.49996 A 5 5 0 0 0 73.75002 128.50017 A 5 5 0 0 0 78.750232 123.49996 A 5 5 0 0 0 73.75002 118.49974 z M 98.750045 118.49974 A 5 5 0 0 0 93.749833 123.49996 A 5 5 0 0 0 98.750045 128.50017 A 5 5 0 0 0 103.75026 123.49996 A 5 5 0 0 0 98.750045 118.49974 z M 123.75007 118.49974 A 5 5 0 0 0 118.74986 123.49996 A 5 5 0 0 0 123.75007 128.50017 A 5 5 0 0 0 128.74976 123.49996 A 5 5 0 0 0 123.75007 118.49974 z M 148.75009 118.49974 A 5 5 0 0 0 143.74988 123.49996 A 5 5 0 0 0 148.75009 128.50017 A 5 5 0 0 0 153.74979 123.49996 A 5 5 0 0 0 148.75009 118.49974 z M 173.75012 118.49974 A 5 5 0 0 0 168.74991 123.49996 A 5 5 0 0 0 173.75012 128.50017 A 5 5 0 0 0 178.74981 123.49996 A 5 5 0 0 0 173.75012 118.49974 z M 36.249984 130.99976 A 5 5 0 0 0 31.249772 135.99997 A 5 5 0 0 0 36.249984 141.00018 A 5 5 0 0 0 41.250195 135.99997 A 5 5 0 0 0 36.249984 130.99976 z M 61.250008 130.99976 A 5 5 0 0 0 56.249797 135.99997 A 5 5 0 0 0 61.250008 141.00018 A 5 5 0 0 0 66.25022 135.99997 A 5 5 0 0 0 61.250008 130.99976 z M 86.250033 130.99976 A 5 5 0 0 0 81.249821 135.99997 A 5 5 0 0 0 86.250033 141.00018 A 5 5 0 0 0 91.250244 135.99997 A 5 5 0 0 0 86.250033 130.99976 z M 111.25006 130.99976 A 5 5 0 0 0 106.24985 135.99997 A 5 5 0 0 0 111.25006 141.00018 A 5 5 0 0 0 116.24975 135.99997 A 5 5 0 0 0 111.25006 130.99976 z M 136.25008 130.99976 A 5 5 0 0 0 131.24987 135.99997 A 5 5 0 0 0 136.25008 141.00018 A 5 5 0 0 0 141.24978 135.99997 A 5 5 0 0 0 136.25008 130.99976 z M 161.25011 130.99976 A 5 5 0 0 0 156.24989 135.99997 A 5 5 0 0 0 161.25011 141.00018 A 5 5 0 0 0 166.2498 135.99997 A 5 5 0 0 0 161.25011 130.99976 z M 186.25013 130.99976 A 5 5 0 0 0 181.24992 135.99997 A 5 5 0 0 0 186.25013 141.00018 A 5 5 0 0 0 191.24983 135.99997 A 5 5 0 0 0 186.25013 130.99976 z M 23.749972 143.49977 A 5 5 0 0 0 18.74976 148.49998 A 5 5 0 0 0 23.749972 153.50019 A 5 5 0 0 0 28.750183 148.49998 A 5 5 0 0 0 23.749972 143.49977 z M 48.749996 143.49977 A 5 5 0 0 0 43.749784 148.49998 A 5 5 0 0 0 48.749996 153.50019 A 5 5 0 0 0 53.750208 148.49998 A 5 5 0 0 0 48.749996 143.49977 z M 73.75002 143.49977 A 5 5 0 0 0 68.749809 148.49998 A 5 5 0 0 0 73.75002 153.50019 A 5 5 0 0 0 78.750232 148.49998 A 5 5 0 0 0 73.75002 143.49977 z M 98.750045 143.49977 A 5 5 0 0 0 93.749833 148.49998 A 5 5 0 0 0 98.750045 153.50019 A 5 5 0 0 0 103.75026 148.49998 A 5 5 0 0 0 98.750045 143.49977 z M 123.75007 143.49977 A 5 5 0 0 0 118.74986 148.49998 A 5 5 0 0 0 123.75007 153.50019 A 5 5 0 0 0 128.74976 148.49998 A 5 5 0 0 0 123.75007 143.49977 z M 148.75009 143.49977 A 5 5 0 0 0 143.74988 148.49998 A 5 5 0 0 0 148.75009 153.50019 A 5 5 0 0 0 153.74979 148.49998 A 5 5 0 0 0 148.75009 143.49977 z M 173.75012 143.49977 A 5 5 0 0 0 168.74991 148.49998 A 5 5 0 0 0 173.75012 153.50019 A 5 5 0 0 0 178.74981 148.49998 A 5 5 0 0 0 173.75012 143.49977 z M 36.249984 155.99978 A 5 5 0 0 0 31.249772 160.99999 A 5 5 0 0 0 36.249984 166.0002 A 5 5 0 0 0 41.250195 160.99999 A 5 5 0 0 0 36.249984 155.99978 z M 61.250008 155.99978 A 5 5 0 0 0 56.249797 160.99999 A 5 5 0 0 0 61.250008 166.0002 A 5 5 0 0 0 66.25022 160.99999 A 5 5 0 0 0 61.250008 155.99978 z M 86.250033 155.99978 A 5 5 0 0 0 81.249821 160.99999 A 5 5 0 0 0 86.250033 166.0002 A 5 5 0 0 0 91.250244 160.99999 A 5 5 0 0 0 86.250033 155.99978 z M 111.25006 155.99978 A 5 5 0 0 0 106.24985 160.99999 A 5 5 0 0 0 111.25006 166.0002 A 5 5 0 0 0 116.24975 160.99999 A 5 5 0 0 0 111.25006 155.99978 z M 136.25008 155.99978 A 5 5 0 0 0 131.24987 160.99999 A 5 5 0 0 0 136.25008 166.0002 A 5 5 0 0 0 141.24978 160.99999 A 5 5 0 0 0 136.25008 155.99978 z M 161.25011 155.99978 A 5 5 0 0 0 156.24989 160.99999 A 5 5 0 0 0 161.25011 166.0002 A 5 5 0 0 0 166.2498 160.99999 A 5 5 0 0 0 161.25011 155.99978 z M 186.25013 155.99978 A 5 5 0 0 0 181.24992 160.99999 A 5 5 0 0 0 186.25013 166.0002 A 5 5 0 0 0 191.24983 160.99999 A 5 5 0 0 0 186.25013 155.99978 z M 23.749972 168.49979 A 5 5 0 0 0 18.74976 173.5 A 5 5 0 0 0 23.749972 178.50022 A 5 5 0 0 0 28.750183 173.5 A 5 5 0 0 0 23.749972 168.49979 z M 48.749996 168.49979 A 5 5 0 0 0 43.749784 173.5 A 5 5 0 0 0 48.749996 178.50022 A 5 5 0 0 0 53.750208 173.5 A 5 5 0 0 0 48.749996 168.49979 z M 73.75002 168.49979 A 5 5 0 0 0 68.749809 173.5 A 5 5 0 0 0 73.75002 178.50022 A 5 5 0 0 0 78.750232 173.5 A 5 5 0 0 0 73.75002 168.49979 z M 98.750045 168.49979 A 5 5 0 0 0 93.749833 173.5 A 5 5 0 0 0 98.750045 178.50022 A 5 5 0 0 0 103.75026 173.5 A 5 5 0 0 0 98.750045 168.49979 z M 123.75007 168.49979 A 5 5 0 0 0 118.74986 173.5 A 5 5 0 0 0 123.75007 178.50022 A 5 5 0 0 0 128.74976 173.5 A 5 5 0 0 0 123.75007 168.49979 z M 148.75009 168.49979 A 5 5 0 0 0 143.74988 173.5 A 5 5 0 0 0 148.75009 178.50022 A 5 5 0 0 0 153.74979 173.5 A 5 5 0 0 0 148.75009 168.49979 z M 173.75012 168.49979 A 5 5 0 0 0 168.74991 173.5 A 5 5 0 0 0 173.75012 178.50022 A 5 5 0 0 0 178.74981 173.5 A 5 5 0 0 0 173.75012 168.49979 z M 36.249984 180.9998 A 5 5 0 0 0 31.249772 186.00002 A 5 5 0 0 0 36.249984 191.00023 A 5 5 0 0 0 41.250195 186.00002 A 5 5 0 0 0 36.249984 180.9998 z M 61.250008 180.9998 A 5 5 0 0 0 56.249797 186.00002 A 5 5 0 0 0 61.250008 191.00023 A 5 5 0 0 0 66.25022 186.00002 A 5 5 0 0 0 61.250008 180.9998 z M 86.250033 180.9998 A 5 5 0 0 0 81.249821 186.00002 A 5 5 0 0 0 86.250033 191.00023 A 5 5 0 0 0 91.250244 186.00002 A 5 5 0 0 0 86.250033 180.9998 z M 111.25006 180.9998 A 5 5 0 0 0 106.24985 186.00002 A 5 5 0 0 0 111.25006 191.00023 A 5 5 0 0 0 116.24975 186.00002 A 5 5 0 0 0 111.25006 180.9998 z M 136.25008 180.9998 A 5 5 0 0 0 131.24987 186.00002 A 5 5 0 0 0 136.25008 191.00023 A 5 5 0 0 0 141.24978 186.00002 A 5 5 0 0 0 136.25008 180.9998 z M 161.25011 180.9998 A 5 5 0 0 0 156.24989 186.00002 A 5 5 0 0 0 161.25011 191.00023 A 5 5 0 0 0 166.2498 186.00002 A 5 5 0 0 0 161.25011 180.9998 z M 186.25013 180.9998 A 5 5 0 0 0 181.24992 186.00002 A 5 5 0 0 0 186.25013 191.00023 A 5 5 0 0 0 191.24983 186.00002 A 5 5 0 0 0 186.25013 180.9998 z M 23.749972 193.49982 A 5 5 0 0 0 18.74976 198.50003 A 5 5 0 0 0 23.749972 203.50024 A 5 5 0 0 0 28.750183 198.50003 A 5 5 0 0 0 23.749972 193.49982 z M 48.749996 193.49982 A 5 5 0 0 0 43.749784 198.50003 A 5 5 0 0 0 48.749996 203.50024 A 5 5 0 0 0 53.750208 198.50003 A 5 5 0 0 0 48.749996 193.49982 z M 73.75002 193.49982 A 5 5 0 0 0 68.749809 198.50003 A 5 5 0 0 0 73.75002 203.50024 A 5 5 0 0 0 78.750232 198.50003 A 5 5 0 0 0 73.75002 193.49982 z M 98.750045 193.49982 A 5 5 0 0 0 93.749833 198.50003 A 5 5 0 0 0 98.750045 203.50024 A 5 5 0 0 0 103.75026 198.50003 A 5 5 0 0 0 98.750045 193.49982 z M 123.75007 193.49982 A 5 5 0 0 0 118.74986 198.50003 A 5 5 0 0 0 123.75007 203.50024 A 5 5 0 0 0 128.74976 198.50003 A 5 5 0 0 0 123.75007 193.49982 z M 148.75009 193.49982 A 5 5 0 0 0 143.74988 198.50003 A 5 5 0 0 0 148.75009 203.50024 A 5 5 0 0 0 153.74979 198.50003 A 5 5 0 0 0 148.75009 193.49982 z M 173.75012 193.49982 A 5 5 0 0 0 168.74991 198.50003 A 5 5 0 0 0 173.75012 203.50024 A 5 5 0 0 0 178.74981 198.50003 A 5 5 0 0 0 173.75012 193.49982 z M 36.249984 205.99983 A 5 5 0 0 0 31.249772 211.00004 A 5 5 0 0 0 36.249984 216.00025 A 5 5 0 0 0 41.250195 211.00004 A 5 5 0 0 0 36.249984 205.99983 z M 61.250008 205.99983 A 5 5 0 0 0 56.249797 211.00004 A 5 5 0 0 0 61.250008 216.00025 A 5 5 0 0 0 66.25022 211.00004 A 5 5 0 0 0 61.250008 205.99983 z M 86.250033 205.99983 A 5 5 0 0 0 81.249821 211.00004 A 5 5 0 0 0 86.250033 216.00025 A 5 5 0 0 0 91.250244 211.00004 A 5 5 0 0 0 86.250033 205.99983 z M 111.25006 205.99983 A 5 5 0 0 0 106.24985 211.00004 A 5 5 0 0 0 111.25006 216.00025 A 5 5 0 0 0 116.24975 211.00004 A 5 5 0 0 0 111.25006 205.99983 z M 136.25008 205.99983 A 5 5 0 0 0 131.24987 211.00004 A 5 5 0 0 0 136.25008 216.00025 A 5 5 0 0 0 141.24978 211.00004 A 5 5 0 0 0 136.25008 205.99983 z M 161.25011 205.99983 A 5 5 0 0 0 156.24989 211.00004 A 5 5 0 0 0 161.25011 216.00025 A 5 5 0 0 0 166.2498 211.00004 A 5 5 0 0 0 161.25011 205.99983 z M 186.25013 205.99983 A 5 5 0 0 0 181.24992 211.00004 A 5 5 0 0 0 186.25013 216.00025 A 5 5 0 0 0 191.24983 211.00004 A 5 5 0 0 0 186.25013 205.99983 z M 23.749972 218.49984 A 5 5 0 0 0 18.74976 223.50005 A 5 5 0 0 0 23.749972 228.49975 A 5 5 0 0 0 28.750183 223.50005 A 5 5 0 0 0 23.749972 218.49984 z M 48.749996 218.49984 A 5 5 0 0 0 43.749784 223.50005 A 5 5 0 0 0 48.749996 228.49975 A 5 5 0 0 0 53.750208 223.50005 A 5 5 0 0 0 48.749996 218.49984 z M 73.75002 218.49984 A 5 5 0 0 0 68.749809 223.50005 A 5 5 0 0 0 73.75002 228.49975 A 5 5 0 0 0 78.750232 223.50005 A 5 5 0 0 0 73.75002 218.49984 z M 98.750045 218.49984 A 5 5 0 0 0 93.749833 223.50005 A 5 5 0 0 0 98.750045 228.49975 A 5 5 0 0 0 103.75026 223.50005 A 5 5 0 0 0 98.750045 218.49984 z M 123.75007 218.49984 A 5 5 0 0 0 118.74986 223.50005 A 5 5 0 0 0 123.75007 228.49975 A 5 5 0 0 0 128.74976 223.50005 A 5 5 0 0 0 123.75007 218.49984 z M 148.75009 218.49984 A 5 5 0 0 0 143.74988 223.50005 A 5 5 0 0 0 148.75009 228.49975 A 5 5 0 0 0 153.74979 223.50005 A 5 5 0 0 0 148.75009 218.49984 z M 173.75012 218.49984 A 5 5 0 0 0 168.74991 223.50005 A 5 5 0 0 0 173.75012 228.49975 A 5 5 0 0 0 178.74981 223.50005 A 5 5 0 0 0 173.75012 218.49984 z M 36.249984 230.99985 A 5 5 0 0 0 31.249772 236.00007 A 5 5 0 0 0 36.249984 240.99976 A 5 5 0 0 0 41.250195 236.00007 A 5 5 0 0 0 36.249984 230.99985 z M 61.250008 230.99985 A 5 5 0 0 0 56.249797 236.00007 A 5 5 0 0 0 61.250008 240.99976 A 5 5 0 0 0 66.25022 236.00007 A 5 5 0 0 0 61.250008 230.99985 z M 86.250033 230.99985 A 5 5 0 0 0 81.249821 236.00007 A 5 5 0 0 0 86.250033 240.99976 A 5 5 0 0 0 91.250244 236.00007 A 5 5 0 0 0 86.250033 230.99985 z M 111.25006 230.99985 A 5 5 0 0 0 106.24985 236.00007 A 5 5 0 0 0 111.25006 240.99976 A 5 5 0 0 0 116.24975 236.00007 A 5 5 0 0 0 111.25006 230.99985 z M 136.25008 230.99985 A 5 5 0 0 0 131.24987 236.00007 A 5 5 0 0 0 136.25008 240.99976 A 5 5 0 0 0 141.24978 236.00007 A 5 5 0 0 0 136.25008 230.99985 z M 161.25011 230.99985 A 5 5 0 0 0 156.24989 236.00007 A 5 5 0 0 0 161.25011 240.99976 A 5 5 0 0 0 166.2498 236.00007 A 5 5 0 0 0 161.25011 230.99985 z M 186.25013 230.99985 A 5 5 0 0 0 181.24992 236.00007 A 5 5 0 0 0 186.25013 240.99976 A 5 5 0 0 0 191.24983 236.00007 A 5 5 0 0 0 186.25013 230.99985 z M 23.749972 243.49987 A 5 5 0 0 0 18.74976 248.50008 A 5 5 0 0 0 23.749972 253.49977 A 5 5 0 0 0 28.750183 248.50008 A 5 5 0 0 0 23.749972 243.49987 z M 48.749996 243.49987 A 5 5 0 0 0 43.749784 248.50008 A 5 5 0 0 0 48.749996 253.49977 A 5 5 0 0 0 53.750208 248.50008 A 5 5 0 0 0 48.749996 243.49987 z M 73.75002 243.49987 A 5 5 0 0 0 68.749809 248.50008 A 5 5 0 0 0 73.75002 253.49977 A 5 5 0 0 0 78.750232 248.50008 A 5 5 0 0 0 73.75002 243.49987 z M 98.750045 243.49987 A 5 5 0 0 0 93.749833 248.50008 A 5 5 0 0 0 98.750045 253.49977 A 5 5 0 0 0 103.75026 248.50008 A 5 5 0 0 0 98.750045 243.49987 z M 123.75007 243.49987 A 5 5 0 0 0 118.74986 248.50008 A 5 5 0 0 0 123.75007 253.49977 A 5 5 0 0 0 128.74976 248.50008 A 5 5 0 0 0 123.75007 243.49987 z M 148.75009 243.49987 A 5 5 0 0 0 143.74988 248.50008 A 5 5 0 0 0 148.75009 253.49977 A 5 5 0 0 0 153.74979 248.50008 A 5 5 0 0 0 148.75009 243.49987 z M 173.75012 243.49987 A 5 5 0 0 0 168.74991 248.50008 A 5 5 0 0 0 173.75012 253.49977 A 5 5 0 0 0 178.74981 248.50008 A 5 5 0 0 0 173.75012 243.49987 z M 36.249984 255.99988 A 5 5 0 0 0 31.249772 261.00009 A 5 5 0 0 0 36.249984 265.99978 A 5 5 0 0 0 41.250195 261.00009 A 5 5 0 0 0 36.249984 255.99988 z M 61.250008 255.99988 A 5 5 0 0 0 56.249797 261.00009 A 5 5 0 0 0 61.250008 265.99978 A 5 5 0 0 0 66.25022 261.00009 A 5 5 0 0 0 61.250008 255.99988 z M 86.250033 255.99988 A 5 5 0 0 0 81.249821 261.00009 A 5 5 0 0 0 86.250033 265.99978 A 5 5 0 0 0 91.250244 261.00009 A 5 5 0 0 0 86.250033 255.99988 z M 111.25006 255.99988 A 5 5 0 0 0 106.24985 261.00009 A 5 5 0 0 0 111.25006 265.99978 A 5 5 0 0 0 116.24975 261.00009 A 5 5 0 0 0 111.25006 255.99988 z M 136.25008 255.99988 A 5 5 0 0 0 131.24987 261.00009 A 5 5 0 0 0 136.25008 265.99978 A 5 5 0 0 0 141.24978 261.00009 A 5 5 0 0 0 136.25008 255.99988 z M 161.25011 255.99988 A 5 5 0 0 0 156.24989 261.00009 A 5 5 0 0 0 161.25011 265.99978 A 5 5 0 0 0 166.2498 261.00009 A 5 5 0 0 0 161.25011 255.99988 z M 186.25013 255.99988 A 5 5 0 0 0 181.24992 261.00009 A 5 5 0 0 0 186.25013 265.99978 A 5 5 0 0 0 191.24983 261.00009 A 5 5 0 0 0 186.25013 255.99988 z M 23.749972 268.49989 A 5 5 0 0 0 18.74976 273.5001 A 5 5 0 0 0 23.749972 278.4998 A 5 5 0 0 0 28.750183 273.5001 A 5 5 0 0 0 23.749972 268.49989 z M 48.749996 268.49989 A 5 5 0 0 0 43.749784 273.5001 A 5 5 0 0 0 48.749996 278.4998 A 5 5 0 0 0 53.750208 273.5001 A 5 5 0 0 0 48.749996 268.49989 z M 73.75002 268.49989 A 5 5 0 0 0 68.749809 273.5001 A 5 5 0 0 0 73.75002 278.4998 A 5 5 0 0 0 78.750232 273.5001 A 5 5 0 0 0 73.75002 268.49989 z M 98.750045 268.49989 A 5 5 0 0 0 93.749833 273.5001 A 5 5 0 0 0 98.750045 278.4998 A 5 5 0 0 0 103.75026 273.5001 A 5 5 0 0 0 98.750045 268.49989 z M 123.75007 268.49989 A 5 5 0 0 0 118.74986 273.5001 A 5 5 0 0 0 123.75007 278.4998 A 5 5 0 0 0 128.74976 273.5001 A 5 5 0 0 0 123.75007 268.49989 z M 148.75009 268.49989 A 5 5 0 0 0 143.74988 273.5001 A 5 5 0 0 0 148.75009 278.4998 A 5 5 0 0 0 153.74979 273.5001 A 5 5 0 0 0 148.75009 268.49989 z M 173.75012 268.49989 A 5 5 0 0 0 168.74991 273.5001 A 5 5 0 0 0 173.75012 278.4998 A 5 5 0 0 0 178.74981 273.5001 A 5 5 0 0 0 173.75012 268.49989 z "
       style="fill:#ffffff;fill-opacity:1;stroke:none;stroke-width:0.667;stroke-dasharray:none" />
  </g>
</svg>
